<?xml version="1.0" standalone="no"?>
<!DOCTYPE svg PUBLIC "-//W3C//DTD SVG 1.1//EN" "http://www.w3.org/Graphics/SVG/1.1/DTD/svg11.dtd" >
<svg xmlns="http://www.w3.org/2000/svg">
<metadata>
Created by FontForge 20120731 at Thu Dec 10 11:45:13 2015
 By Ads
</metadata>
<defs>
<font id="iconchar" horiz-adv-x="1024" >
  <font-face 
    font-family="iconchar"
    font-weight="500"
    font-stretch="normal"
    units-per-em="1024"
    panose-1="2 0 6 3 0 0 0 0 0 0"
    ascent="896"
    descent="-128"
    x-height="792"
    bbox="34 -31 956 792"
    underline-thickness="50"
    underline-position="-100"
    unicode-range="U+0078-9500"
  />
<missing-glyph horiz-adv-x="374" 
d="M34 0v682h272v-682h-272zM68 34h204v614h-204v-614z" />
    <glyph glyph-name=".notdef" horiz-adv-x="374" 
d="M34 0v682h272v-682h-272zM68 34h204v614h-204v-614z" />
    <glyph glyph-name=".null" horiz-adv-x="0" 
 />
    <glyph glyph-name="nonmarkingreturn" horiz-adv-x="341" 
 />
    <glyph glyph-name="x" unicode="x" horiz-adv-x="1001" 
d="M281 543q-27 -1 -53 -1h-83q-18 0 -36.5 -6t-32.5 -18.5t-23 -32t-9 -45.5v-76h912v41q0 16 -0.5 30t-0.5 18q0 13 -5 29t-17 29.5t-31.5 22.5t-49.5 9h-133v-97h-438v97zM955 310v-52q0 -23 0.5 -52t0.5 -58t-10.5 -47.5t-26 -30t-33 -16t-31.5 -4.5q-14 -1 -29.5 -0.5
t-29.5 0.5h-32l-45 128h-439l-44 -128h-29h-34q-20 0 -45 1q-25 0 -41 9.5t-25.5 23t-13.5 29.5t-4 30v167h911zM163 247q-12 0 -21 -8.5t-9 -21.5t9 -21.5t21 -8.5q13 0 22 8.5t9 21.5t-9 21.5t-22 8.5zM316 123q-8 -26 -14 -48q-5 -19 -10.5 -37t-7.5 -25t-3 -15t1 -14.5
t9.5 -10.5t21.5 -4h37h67h81h80h64h36q23 0 34 12t2 38q-5 13 -9.5 30.5t-9.5 34.5q-5 19 -11 39h-368zM336 498v228q0 11 2.5 23t10 21.5t20.5 15.5t34 6h188q31 0 51.5 -14.5t20.5 -52.5v-227h-327z" />
    <glyph glyph-name="uni4E00" unicode="&#x4e00;" 
d="M305 395q15 1 30.5 2t31 1.5t30.5 0.5q19 1 47.5 1.5t64.5 0.5q38 0 67.5 -0.5t48.5 -1.5q45 0 103 -4q3 0 5 -1t3 -3q0 -2 -4 -9q-7 -18 -31 -12q-93 8 -192 8q-125 2 -210 -10q-4 -1 -6 -0.5t-3.5 2.5t-1.5 6q2 10 6.5 14.5t10.5 4.5z" />
    <glyph glyph-name="uni4E13" unicode="&#x4e13;" 
d="M578 198q-80 36 -192 69q-12 4 -6 10q4 9 12 7q22 -6 46 -13t50 -16q94 31 155 69q3 2 4.5 5t1.5 6q-2 4 -10 6q-112 4 -208 0q-29 -2 -23 26q4 6 11 23q5 16 6 18q-98 -4 -147 -12q-7 0 -9 2.5t0 7.5q7 18 19 16q13 1 33.5 2.5t48.5 2.5q21 1 37 1.5t26 0.5q12 30 24 61
h-2h-3h-9q-37 -2 -61 -3.5t-35 -2.5q-3 -1 -5 -1h-3q-1 0 -2 1q-2 2 0 8q2 12 16 12q70 4 110 4q2 2 3 4.5t2 5.5t2.5 7t3.5 8q7 18 12 30q6 13 16 11q3 -1 5 -3t3 -4t0.5 -5t-2.5 -7t-6 -16q-4 -6 -14 -31h78q34 0 55.5 -0.5t31.5 -1.5q13 -2 11 -8q-2 -5 -5 -8.5t-7.5 -5
t-10.5 -0.5q-57 6 -153 6h-8q-12 -31 -23 -61q9 0 25 2h18q44 0 86.5 -1t83.5 -3t79 -5q2 0 4 -0.5t3 -1.5q0 -4 -2 -8q-11 -18 -33 -12q-32 3 -67 5.5t-73.5 3.5t-80.5 1h-51q-1 -4 -3 -9t-3 -9t-3 -9.5t-3 -9.5q-2 -8 0 -12q2 -2 10 -2q104 4 194 0q25 -2 33 -18
q1 -4 1.5 -7t-0.5 -6t-2.5 -5.5t-4.5 -5t-6 -5.5q-36 -21 -72.5 -38t-72.5 -29q38 -15 69 -31q8 -3 10.5 -6.5t-0.5 -7.5q-2 -10 -18 -2z" />
    <glyph glyph-name="uni4E3A" unicode="&#x4e3a;" 
d="M562 571q-13 -65 -35 -120q83 0 183 -4q46 -5 44 -42q-7 -85 -22 -148q-17 -70 -65 -70q-66 -9 -129 7q-17 4 -15 24q0 11 11 6q65 -28 126 -19q35 2 50 54q16 55 20 135q4 31 -31 33h-82q-67 2 -99 2q-67 -163 -204 -242q-18 -11 -40 0q-4 4 -4 9q0 2 6 4
q147 72 216 229q-39 0 -87 -1t-105 -3q-4 -2 -4 6q4 16 20 18q51 2 187 2q22 57 35 127q0 8 13 8q13 -2 11 -15zM447 484q-49 35 -92 54q-11 7 -4 13q8 11 19 7q46 -20 92 -52q8 -7 0 -18q-7 -9 -15 -4zM643 285q-21 16 -40 29t-35 24.5t-30 20.5q-11 7 -4 16q11 8 19 2
q14 -8 27 -16t26 -17t25.5 -18t24.5 -19q4 -4 4.5 -9t-2.5 -11q-6 -8 -15 -2z" />
    <glyph glyph-name="uni4E3B" unicode="&#x4e3b;" 
d="M345 467q80 4 158 4q72 0 114.5 -0.5t54.5 -1.5h4q7 -1 10 -3t0 -5q0 -14 -20 -10q-62 4 -149 4v-90h127h4q7 -1 9.5 -3t0.5 -5q0 -15 -21 -10q-27 2 -120 2v-105q90 0 225 -6h4q2 0 3 -0.5t1 -1.5q2 -4 -2 -10q-4 -12 -43 -6q-66 6 -192 6q-145 2 -231 -12q-10 -2 -8 8
q1 8 4.5 12t9.5 4q38 2 73.5 3.5t70 2t67.5 0.5v105q-16 0 -56 -2q-56 -2 -73 -4q-5 0 -7 2.5t-1 7.5q2 8 14 10h-1h3q39 2 69 3t52 1v88q-9 0 -27.5 -0.5t-46.5 -1.5q-71 -2 -86 -4q-12 0 -10 10q4 8 16 8zM505 490q-19 32 -31 47q-8 12 2 16h2q8 4 12 -2l2 -2q1 -1 2 -2.5
t3 -3.5q18 -27 26 -45q1 -4 -0.5 -7.5t-5.5 -7.5q-8 -2 -12 7z" />
    <glyph glyph-name="uni4F9B" unicode="&#x4f9b;" 
d="M400 562q4 8 13 6l3 -4q2 -1 2.5 -3.5t0 -4.5t-1.5 -5q-23 -37 -47 -69v-274q0 -6 -10 -8q-6 1 -8.5 3t-2.5 5v251q-28 -30 -53 -49q-10 -8 -28 0q-6 6 2 11q73 44 130 141zM646 553v-75q21 0 40.5 -0.5t36.5 -1.5q12 0 10 -8q-4 -17 -20 -13q-6 1 -13 1l-12 2
q-7 0 -14 0.5t-14 0.5h-14v-104q5 0 12 -0.5t16 -1.5q27 -1 46.5 -2t31.5 -2q10 0 6 -8q-4 -14 -21 -12q-3 0 -7.5 0.5t-10.5 1.5q-84 8 -137 8q-108 0 -175 -10q-13 -2 -11 6q4 14 17 16q19 0 71 4h14v104q-39 -2 -71 -6q-8 2 -6 8q-2 13 14 15h27q25 2 36 2v75q0 5 3 8
t8 3q8 0 8 -11v-75q12 0 28.5 0.5t37 1t44.5 0.5v75q0 4 2.5 6.5t7.5 2.5q4 1 6.5 -2t2.5 -9zM523 294q-39 -49 -92 -86q-16 -8 -29 0q-3 6 5 10q31 19 55 40.5t41 45.5q10 10 16 4q10 -6 4 -14zM582 357h19q8 -1 14.5 -1.5t11.5 -0.5v104q-27 2 -55 2t-55 -2v-104
q6 0 15 0.5t22 1.5h28zM629 292q-4 8 4 14q7 5 15 -4q9 -12 19.5 -23.5t22 -22t24.5 -20t28 -18.5q4 -2 4 -4q-2 -4 -4 -6q-15 -8 -25 0q-21 14 -43 35t-45 49z" />
    <glyph glyph-name="uni52A1" unicode="&#x52a1;" 
d="M444 563q2 5 5.5 6t8.5 -2q12 -6 4 -16l-6 -8q-2 -2 -3.5 -4t-2.5 -4q86 4 184 0q20 0 26 -11q4 -5 2 -10.5t-8 -11.5q-36 -29 -118 -72q108 -40 218 -57q9 -2 9 -4q1 -1 0.5 -3t-2.5 -5q-11 -14 -31 -8q-125 28 -219 67q-17 -8 -35 -15.5t-36 -14.5t-36 -13t-36 -11.5
t-36.5 -10t-36.5 -8.5q-23 -9 -33 8q-4 8 4 10q92 12 221 65q-17 9 -33 17t-31.5 17t-29.5 17q-6 -4 -12 -9.5t-13.5 -11t-15.5 -11.5q-8 -5 -14 -4.5t-11 6.5q-2 2 -3 3.5t-1 2.5l4 4q14 7 26.5 15.5t24.5 18.5t23.5 20.5t22 22.5t20.5 25zM507 379q0 -3 -0.5 -6.5
t-1.5 -6.5t-2 -7t-2 -7.5t-2 -6.5q80 4 127 0q32 0 28 -25q-10 -49 -30 -104q-4 -14 -25 -12q-3 0 -5 0.5t-3 1.5q-2 4 2 8q29 47 37 100q3 5 1.5 8t-6.5 4.5t-14 1.5q-35 0 -64.5 -0.5t-53.5 -1.5q-47 -100 -163 -126q-19 -4 -25 6q-2 10 6 8q117 22 159 112
q-35 -2 -60.5 -3.5t-41.5 -2.5q-8 0 -6 6q4 17 17 15q43 4 98 4q0 2 2 8q1 2 2 5l2 6l2 8q1 3 2 7q0 9 10 9q3 0 5 -1l2 -2q2 -1 2.5 -2.5t0.5 -3.5zM430 514q-4 -3 -7.5 -6.5t-7.5 -7t-8 -6.5q47 -29 102 -53q78 34 119 65q4 4 2 8q-1 2 -3 3t-5 1q-143 0 -192 -4z" />
    <glyph glyph-name="uni52A8" unicode="&#x52a8;" 
d="M286 428q69 4 108 4q45 0 127 -4h4q12 -2 10 -8q0 -13 -22 -13q-13 2 -26.5 3t-28 2t-31 1.5t-33.5 0.5q-20 0 -39.5 -1t-38.5 -2t-38 -4q-7 0 -9 2.5t0 6.5q2 12 17 12zM390 375q-35 -35 -63 -76q-7 -12 -7 -16q1 -2 4 -3t7 -1q63 -2 122 0q7 1 12 2.5t7 3.5q1 1 1 3
t-1.5 5t-3.5 6q-9 15 -31 35q-10 8 -2 14q8 4 16 -2q23 -22 37 -41q14 -18 8 -30q-3 -4 -7 -7t-10 -5t-13 -3q-103 -4 -150 0q-34 7 -10 43q21 28 37.5 49t30.5 35q4 6 14 2q4 -2 4.5 -5.5t-2.5 -8.5zM314 518q10 1 20.5 1.5t21.5 1t22.5 1t23.5 0.5q25 0 47.5 -1t42.5 -3
q6 -1 9 -2t4 -2.5t-1 -3.5q1 -5 -3.5 -8t-14.5 -3q-5 1 -11.5 2t-14 1.5t-16.5 0.5h-20h-22q-24 1 -47.5 0t-46.5 -4q-8 0 -6 11q2 8 12 8zM653 555q0 -4 -1 -9l-2 -8l-2 -10t-2.5 -10.5t-3 -11.5t-3.5 -13q-1 -6 -2 -10.5t-2 -7.5h43q15 -1 27 -1.5t20 -0.5q31 -2 31 -33
q-3 -19 -6 -36.5t-6.5 -34.5t-7.5 -33.5t-8 -32t-9 -30.5t-10 -28.5t-11 -26.5q-4 -17 -20 -17q-12 2 -8 10q23 46 39.5 102t25.5 121q1 6 0 10t-3.5 6.5t-7.5 3.5t-11 0q-21 3 -41.5 3t-40.5 -3q-45 -151 -129 -243q-10 -14 -34 -8q-7 4 -2 10q96 82 145 241q-41 0 -76 -4
q-4 -2 -6 0t0 7q2 14 14 14q31 2 72 2q6 20 10.5 41t7.5 43q2 10 12 10q10 -2 8 -12z" />
    <glyph glyph-name="uni5355" unicode="&#x5355;" 
d="M344 360q-7 61 0 121q0 10 7 14.5t21 3.5q125 10 282 0q27 0 29 -18q10 -56 0 -121q-2 -14 -37 -12q-23 0 -61 2q-22 0 -38 0.5t-26 1.5v-53q115 0 233 -6q5 0 6 -3.5t-2 -9.5t-12 -8t-25 0h-4q-12 1 -25 2t-25.5 1.5t-25 1.5t-24.5 1l-24 2h-24h-24h-24v-79
q0 -3 -2.5 -4.5t-7.5 -1.5q-10 0 -10 8v77h-4q-147 0 -223 -12q-12 -2 -10 10q4 15 16 15q106 6 219 6h2v53q-20 -2 -64 -2q-40 -2 -63 -2q-31 -4 -30 12zM362 462v-14q-1 -4 -1.5 -7.5t-0.5 -6.5q6 0 15.5 0.5t22.5 0.5h28q16 0 34.5 0.5t40.5 0.5v51q-12 0 -39 -2
q-48 -2 -80 -4q-16 -3 -20 -19zM384 366q36 2 117 2v51q-37 0 -72 -1t-69 -3q0 -4 2 -12v-12q0 -15 5.5 -21t16.5 -4zM450 511q-11 15 -41 39q-8 6 0 16q3 3 6 3t6 -3q23 -16 43 -43q6 -8 0 -14q-3 -2 -6.5 -1.5t-7.5 3.5zM644 481q-66 6 -123 6v-51q110 0 145 -2v28
q-2 19 -22 19zM666 389v26q-34 2 -70 3t-75 1v-51q64 0 125 -2q10 -1 15 4.5t5 18.5zM566 509q-6 -6 -14 -2q-2 2 -3 3.5t-1.5 3t0 3t2.5 2.5q8 7 15.5 13.5t13.5 13t11.5 12.5t10.5 12q3 3 6.5 3t7.5 -3q8 -6 0 -14q-16 -20 -49 -47z" />
    <glyph glyph-name="uni539A" unicode="&#x539a;" 
d="M359 510q4 -55 0 -112q-6 -131 -70 -184q-12 -6 -24 -2q-6 5 -6 8q2 2 8 6q69 53 71 178q4 59 0 116q-2 19 6.5 28.5t26.5 10.5q186 6 370 0q12 0 8 -6q-2 -12 -18 -12q-95 3 -182.5 2.5t-169.5 -4.5q-11 1 -16 -6t-4 -23zM381 298q78 4 184 4h6q0 2 -2 6q-1 2 -2 3.5
t-2 3.5l-2 4q-1 2 -2.5 4.5t-3.5 4.5q-4 9 2 13q4 3 7.5 2.5t6.5 -4.5q1 0 1.5 -0.5t0.5 -1.5l2 -4q47 6 74 18q5 2 6 4q-1 2 -3 3t-5 1q-39 2 -106 0q-72 -2 -117 -6q-12 0 -8 8q6 12 18 14q141 5 217 0q13 -1 21.5 -4t11.5 -8q2 -4 1 -8t-5 -7.5t-11 -6.5
q-12 -6 -33.5 -12.5t-51.5 -12.5l6 -14q49 0 128 -2q25 -2 37 -2q6 -2 8 -4q0 -4 -4 -8h-2q-10 -11 -30 -9q-49 7 -133 9q2 -13 2 -27q8 -57 -49 -53q-30 0 -54 2.5t-42 7.5q-8 2 -10 16q0 9 10 5q45 -15 92 -17q38 -4 34 39q0 4 -2 14q0 8 -2 13h-10q-100 0 -190 -11
q-10 -2 -10 6q4 15 16 17zM410 418q-2 43 0 72q2 22 28 22q121 11 254 0q20 -2 24 -18q6 -33 0 -80q-6 -12 -34 -10q-125 6 -246 0q-24 -4 -26 14zM428 482q0 -4 -2 -8v-7q129 4 276 0l-2 17q-2 12 -23 12q-60 3 -117.5 3t-112.5 -3q-9 -1 -13.5 -4.5t-5.5 -9.5zM700 439v10
q-145 6 -274 2q0 -8 2 -16q-2 -19 23 -13q110 4 231 0q16 -4 18 17z" />
    <glyph glyph-name="uni53D1" unicode="&#x53d1;" 
d="M340 443q-41 -2 -28 41q4 16 10 31q6 10 12 22q2 5 5.5 6.5t8.5 -0.5t7 -5t-1 -7q-6 -14 -14 -26q-6 -9 -10 -25q-2 -8 2.5 -11.5t15.5 -2.5h39q25 1 44 1.5t32 0.5q16 43 28 90q4 12 13 10q10 -4 8 -16q-11 -44 -29 -84q61 0 186 -2h70q10 -2 6 -10q-2 -11 -21 -11
q-115 4 -249 4q-14 -32 -33 -63q100 4 211 0q36 -4 20 -35q-16 -26 -40.5 -48.5t-57.5 -41.5q57 -28 172 -40q6 0 6 -2t-1 -5t-3 -6q-6 -8 -29 -6q-110 14 -167 47q-68 -32 -158 -49q-6 0 -11.5 0.5t-10 2.5t-6.5 5q-2 8 4 9q80 10 161 44q-43 29 -73 74q-6 6 2 12
q6 4 12 -2q19 -25 39.5 -43.5t42.5 -29.5q73 38 96 83q6 13 -11 13q-13 0 -27 0.5t-29 0.5t-31 0.5t-33 0.5q-61 -2 -90 -4q-55 -80 -127 -131q-16 -10 -28 0q-8 8 2 12q116 68 178 202q-7 0 -17 -0.5t-22 -1.5q-57 0 -76 -4zM657 490q-47 33 -80 45q-10 4 -4 14q4 7 12 5
q22 -10 42.5 -21t39.5 -24q8 -7 4 -15q-8 -10 -14 -4z" />
    <glyph glyph-name="uni5408" unicode="&#x5408;" 
d="M499 558q6 6 16 0q5 -6 5 -11t-5 -10q135 -92 245 -129q6 -2 8 -4q0 -2 -1 -4t-3 -4q-8 -10 -20 -6q-1 1 -2 1.5t-2 0.5q-117 49 -229 127l-10 6q-96 -86 -219 -139q-7 -4 -13 -2t-11 10l-2 4q0 1 0.5 1.5t1.5 0.5q94 33 198 113q14 13 25 24t18 21zM354 220q-2 52 0 109
q2 18 16 18q125 6 286 0q18 0 20 -18q4 -53 0 -109q-2 -16 -32 -12q-133 4 -262 0q-28 -2 -28 12zM372 310v-59q0 -29 23 -24q118 4 243 0q10 -1 14.5 4.5t3.5 17.5q4 33 0 61q0 19 -20 19q-55 3 -115.5 3t-128.5 -3q-16 -2 -20 -19zM409 421q98 10 206 0q3 0 4.5 -1t2.5 -2
t1 -3q-6 -13 -18 -13q-74 4 -110 4q-41 0 -96 -6q-7 -2 -9 0t0 6q5 17 19 15z" />
    <glyph glyph-name="uni540D" unicode="&#x540d;" 
d="M485 560q6 10 16 4q9 -2 9 -9q0 -2 -1.5 -4t-5.5 -4q0 -1 -1 -2t-2 -3l-2 -2q-1 -2 -2.5 -4t-3.5 -4l-4 -4l-4 -4l-5 -5q131 8 212 0q21 0 27 -11q3 -5 2 -10.5t-6 -11.5q-66 -76 -227 -137q63 4 208 0q12 -2 18 -7t7 -13q3 -25 3 -52t-3 -57q-4 -18 -35 -18
q-114 6 -231 0q-26 0 -26 16q-6 56 0 109v4q-6 -2 -12 -3.5t-12 -3.5l-12 -4l-12 -2l-12 -4q-6 -1 -11.5 -2.5t-11 -2.5t-11.5 -3q-21 -6 -31 8q-3 4 -2 7t6 4q133 26 231 67q-58 33 -100 51q-6 4 -2 12.5t12 3.5q28 -10 55.5 -23.5t55.5 -31.5q1 0 1.5 -0.5t0.5 -1.5
q85 39 126 88q4 6 2 8q-2 4 -8 4q-33 2 -63.5 2.5t-58.5 0.5t-54.5 -1.5t-50.5 -3.5q-36 -34 -85 -63q-5 -4 -9.5 -5t-9 0.5t-8.5 6.5q-2 3 -2 4q0 2 4 4q90 51 141 113zM446 314q0 -12 -0.5 -24t0 -24t0.5 -23q0 -12 5.5 -17.5t17.5 -3.5q102 5 214 0q19 -2 19 21
q4 37 0 71q-1 4 -2.5 7t-4 5t-6 3t-8.5 2q-52 3 -105 3t-107 -3q-5 -1 -8.5 -2t-6.5 -3t-5 -5t-3 -7z" />
    <glyph glyph-name="uni544A" unicode="&#x544a;" 
d="M284 389q118 6 221 6v78q-66 0 -125 -4q-17 -27 -35 -47q-14 -17 -28 -6l-3 4q-2 1 -2 2l5 4q51 51 81 114q4 13 13 6q10 -4 4 -14q-11 -25 -23 -43q52 2 113 2v72q0 10 10 10t10 -10v-70q29 0 90 -2h75q13 0 9 -6q0 -18 -23 -16q-78 4 -151 4v-78q23 0 73 -2
q92 -2 150 -4q6 0 8 -2q2 -4 -2 -8q-4 -16 -43 -10q-34 4 -85 6t-119 2q-127 -2 -229 -12q-4 -1 -6 -0.5t-3 2.5t-1 6q1 4 2.5 7t3.5 5t4.5 3t5.5 1zM374 211q-2 56 0 92q0 25 30 29q23 1 49 1.5t56 0.5q42 0 73 -0.5t49 -1.5q5 -1 8.5 -2t6.5 -3t5.5 -4.5t4 -5.5t2.5 -6.5
t2 -7.5q4 -41 0 -83q0 -25 -35 -25q-92 4 -227 0q-24 0 -24 16zM623 314q-80 0 -114 2h-37q-35 -2 -57 -2q-21 -3 -23 -21q-1 -15 -1 -31t1 -32q2 -21 23 -19q100 7 204 0q9 0 14.5 6t7.5 17q4 28 0 55q-2 22 -18 25z" />
    <glyph glyph-name="uni548C" unicode="&#x548c;" 
d="M490 558q14 4 14 -4q2 -6 -1.5 -9.5t-12.5 -4.5q-8 -1 -16 -1.5t-17 -1.5l-18 -2q-9 -1 -19 -2v-69q14 0 41 -2q28 0 43 -2q10 0 6 -8q2 -13 -14 -10q-6 0 -13 0.5t-14 0.5h-15q-8 0 -16.5 0.5t-17.5 0.5v-23q29 -31 80 -65q2 -1 3 -2t1 -2q0 -4 -4 -6q-6 -5 -13 -4.5
t-14 6.5q-14 11 -27.5 23t-25.5 26v-182q0 -4 -8 -6q-10 2 -10 6v200q-49 -74 -104 -118q-11 -11 -25 0q-6 6 0 10q74 49 129 137q-80 0 -102 -5q-11 0 -11 5q1 2 1.5 4.5t1.5 3.5l2 4q1 1 2.5 2t3.5 1.5t4 0.5q16 2 49 2q33 2 49 2v67q-14 0 -43 -2h-37q-18 -2 -22 15
q0 4 2 6t6 2q35 -1 67 -0.5t60.5 2t54.5 4.5zM537 303q-7 104 0 177q1 9 7 14t17 7q84 6 165 0q23 -2 25 -21q6 -71 0 -171q-2 -25 -37 -21q-71 4 -145 0q-16 -2 -24 1.5t-8 13.5zM557 464q-6 -69 0 -135q0 -24 29 -20q59 4 122 0q23 -4 25 22q4 66 0 131q0 10 -6 15t-17 5
q-57 7 -131 0q-24 2 -22 -18z" />
    <glyph glyph-name="uni5546" unicode="&#x5546;" 
d="M618 491q-14 -24 -30 -42q24 0 65 -3h45q23 -2 25 -24q-5 -147 4 -212q-2 -12 -9 -13q-12 0 -14 8v19q-4 93 -2 184q0 18 -16 18q-11 1 -27 1.5t-37 1t-47.5 1t-58.5 0.5q-123 -2 -155 -4q-9 0 -13.5 -5.5t-4.5 -16.5q4 -139 -39 -199q-12 -14 -27 -6q-8 6 -2 11
q55 51 47 208q2 26 23 28q43 3 102 3q-12 20 -31 38q-6 6 2 13q4 4 8 4t9 -4q20 -23 38 -51h88q21 24 39 55q2 3 4 4q-80 1 -156.5 -0.5t-149.5 -5.5q-3 -1 -5 -1t-3 1q-1 4 2 8q4 16 18 14q99 4 198 4q-12 15 -26 27q-7 6 -3 12q11 8 17 2q8 -6 22 -20q14 -15 23 -21
q30 0 78 -1t114 -3q-94 4 12 0q10 -2 4 -12q-4 -12 -14 -10q-16 1 -35 2t-39.5 2t-44.5 2q9 -6 2 -17zM475 389q-11 -6 -25 -12.5t-31 -13.5t-38 -15q-16 -4 -24 7q-1 2 -1.5 4t-0.5 4q2 2 6 2q47 12 102 41q6 3 10 2.5t6 -4.5q5 -9 -4 -15zM408 271v49q2 22 27 24
q69 4 175 0q6 0 10.5 -1.5t7.5 -5t4 -8.5t1 -11v-47q0 -5 -1 -9t-3.5 -6.5t-5.5 -4.5t-7.5 -2.5t-9.5 -0.5q-21 0 -51 2h-35h-34q-16 -1 -28.5 -1.5t-22.5 -0.5q-27 -4 -27 23zM443 267h65v2h41q6 -1 12.5 -1t12 -0.5t10.5 -0.5h10h8q4 0 7 1t4 2.5t1 4.5q4 18 0 41
q1 4 -2 6t-10 2q-90 10 -165 0q-5 1 -7.5 -1.5t-3.5 -8.5v-39q1 -2 2 -3l2 -2q1 -1 3 -2t5 -1h5zM573 408q24 -9 48.5 -19.5t49.5 -23.5q6 -2 7 -5.5t-2 -9.5q-2 -4 -6 -4.5t-9 2.5q-45 25 -100 43q-8 4 -4 13q3 4 7 5t9 -1z" />
    <glyph glyph-name="uni5BB6" unicode="&#x5bb6;" 
d="M351 468q29 2 55 2.5t50.5 1t45.5 0.5q71 0 166 -4q10 0 6 -8q-2 -14 -16 -12h-19q-28 2 -52.5 3.5t-46 2t-40.5 0.5h-6q-4 -4 -8 -7.5t-8 -7.5t-9 -8t-9.5 -8t-10.5 -8q36 -6 62 -20.5t42 -36.5q27 13 48.5 27.5t37.5 29.5q8 12 17 2q8 -6 -5 -18q-21 -18 -42 -31.5
t-41 -23.5q67 -64 161 -98q8 -2 2 -13q-10 -12 -26 -2q-80 35 -139 90v-4q-2 -84 -105 -116q-14 -4 -26 2q-4 4 -4 6q2 2 6 4q106 31 110 104q0 8 -3.5 17t-10.5 18q-86 -94 -198 -141q-17 -6 -25 4q-2 1 -3 2.5t-1 3.5l6 4q115 41 209 141q-3 3 -6 5.5t-6.5 4.5t-7.5 4
t-9 5q-78 -72 -171 -107q-15 -10 -23 2q-4 2 -4 6q0 2 4 5q100 36 176 102q-18 6 -43 10q-49 -33 -115 -57q-8 -4 -14 -2.5t-10 8.5q-4 10 2 10q110 35 174 92q-97 -4 -127 -8q-8 0 -6 6q0 5 2.5 8t5.5 5.5t8 2.5zM318 530h84q63 2 92 2q-6 10 -16 20q-8 10 0 14
q5 3 8.5 2.5t5.5 -4.5q15 -14 27 -32h100q7 0 14 -0.5t14 -0.5h13q7 0 13.5 -0.5t12.5 -0.5q25 0 27 -19v-51q0 -2 -1 -4t-2 -3.5t-3 -2t-4 -0.5q-6 1 -8.5 4t-2.5 8q4 21 0 37q0 12 -14 12q-108 2 -206 2q-94 0 -141 -4q-8 1 -12.5 -3t-4.5 -13q0 -27 2 -37q0 -8 -10 -8
q-8 0 -10 8v47q2 24 22 27z" />
    <glyph glyph-name="uni5E7F" unicode="&#x5e7f;" 
d="M378 462v-75q0 -121 -65 -180q-13 -10 -27 -4q-4 4 -4 6q0 1 0.5 2.5t2 2t3.5 1.5q76 53 72 176v81q0 29 24 29q28 3 66.5 4.5t88.5 1.5q102 0 192 -4q13 0 11 -8q-6 -14 -21 -10q-190 6 -327 0q-5 -1 -8.5 -3.5t-5.5 -7.5t-2 -12zM556 517q-5 5 -10 9.5t-10 8.5l-12 8
q-5 4 -11 7q-10 8 -4 14.5t16 -0.5q25 -14 45 -34q6 -6 0 -15q-6 -4 -14 2z" />
    <glyph glyph-name="uni5E94" unicode="&#x5e94;" 
d="M381 453v-78q0 -124 -65 -167q-17 -9 -27 -2q-8 8 0 14q78 33 74 161q0 21 -0.5 40t-1.5 36v14q-4 27 26 27q117 6 338 0q6 0 6 -2q2 -4 -2 -10q-3 -6 -8 -8.5t-13 -1.5q-21 2 -42 3t-43 2t-45 2t-46 1q-92 0 -132 -4q-7 1 -11.5 -2t-6.5 -9t-1 -16zM684 418
q-15 -58 -36 -103.5t-48 -78.5q35 -2 67.5 -4.5t63.5 -5.5q2 -1 3.5 -2t2.5 -2t1.5 -3t0.5 -5q-6 -12 -19 -10q-39 7 -81.5 10.5t-89.5 3.5q-113 -2 -172 -14h-6q-2 4 0 8q2 14 16 14q51 10 164 10h28q58 76 86 186q1 3 2 5t2.5 3t3 1.5t3.5 -0.5q10 -2 8 -13zM436 412
q25 -53 43 -127v-6q2 -10 -4 -14q-14 -6 -16 10q-12 66 -39 127q-4 12 2 14q8 5 14 -4zM545 508q-4 8 -21 23q-10 12 -14 16q-12 10 -2 14q6 7 14 2q23 -20 39 -41q6 -8 -2 -14q-6 -6 -14 0zM532 447q21 -41 43 -125v-2q4 -14 -4 -18q-4 -2 -6.5 -2.5t-4.5 0.5t-3 3.5
t-2 6.5q-12 65 -39 129q-2 3 -1.5 6.5t3.5 7.5q10 2 14 -6z" />
    <glyph glyph-name="uni5F00" unicode="&#x5f00;" 
d="M278 411q31 2 92 4q33 2 47 2q0 6 0.5 12t0.5 12t0.5 12.5t0.5 13.5v14v57q-4 0 -8.5 -0.5t-10 -0.5t-12.5 -1q-40 -2 -61 -4q-6 -2 -8 2q-2 2 2 8q6 14 22 14q186 4 362 -2l6 -2q0 -4 -2 -8q-6 -14 -23 -12q-10 1 -20.5 2t-21.5 2h-20q-11 1 -21 2v-121q69 0 153 -6
q6 0 6 -2q1 -2 0.5 -4.5t-2.5 -5.5q-4 -9 -15 -11t-28 3q-13 0 -35 2q-53 4 -79 4v-182q-6 -5 -11 -5t-10 5v184h-75h-72q-12 -112 -69 -174q-13 -12 -31 -6l-6 4q0 4 4 6q67 58 82 170q-46 -1 -82.5 -4t-62.5 -8h-2q-7 -2 -7 8q1 4 3 7t4 5t4.5 3t5.5 1zM582 538
q-71 4 -143 0v-72q0 -12 -0.5 -24t-1.5 -25h72h73v121z" />
    <glyph glyph-name="uni5F0F" unicode="&#x5f0f;" 
d="M292 236q26 2 112 10v106q-49 0 -92 -4q-10 -2 -8 8q6 14 18 14q98 4 211 0q10 0 6 -10q-1 -3 -3.5 -5.5t-7 -3.5t-10.5 -1q-23 2 -46.5 3t-47.5 1v-106q32 4 88 10q6 0 11.5 0.5t10.5 1t9.5 0.5t8 0.5t6.5 1t5 0.5q4 0 5.5 -1.5t0.5 -4.5q0 -4 -2 -7t-5.5 -5t-8.5 -2
q-43 -3 -87 -7.5t-90 -10t-93 -13.5q-10 0 -8 6q2 17 17 19zM316 466q42 2 98 2h61h86q-2 37 -2 86q0 10 8 10q4 0 7 -1t4.5 -3t1.5 -6v-86q21 0 65 -2h61q10 0 4 -12q-3 -6 -8.5 -8.5t-13.5 -1.5q-49 4 -106 6q0 -180 159 -229q6 -4 8 -6q0 -4 -6 -6q-9 -4 -17.5 -5
t-15.5 1q-145 61 -149 245q-155 4 -261 -8q-8 0 -8 2q-3 2 2 8q3 7 8.5 10.5t13.5 3.5zM672 487q-17 14 -52 39q-6 4 -7.5 7.5t1.5 6.5q6 8 15 4q40 -30 55 -43q6 -8 2 -14q-3 -3 -6.5 -3t-7.5 3z" />
    <glyph glyph-name="uni6280" unicode="&#x6280;" 
d="M281 355q33 6 80 18q0 48 -2 96q-35 0 -76 -4q-6 -2 -8 0q-1 0 -1 1t1 3q4 15 13 15q12 0 36 2h15q7 0 12 0.5t8 1.5q0 16 -0.5 34t-1.5 37q0 8 8 8q4 1 6.5 0t3.5 -3.5t0 -6.5q1 -5 1.5 -13.5t0.5 -21.5q2 -22 2 -34h49q13 0 11 -11q-2 -8 -17 -8h-43q0 -45 2 -92
q6 2 12 3.5t11.5 2.5t11.5 2.5t12 2.5h5q2 0 3 -1t1 -3q2 -15 -13 -17q-20 -2 -43 -8v-31q9 -112 -87 -126q-19 -4 -27 8q-2 8 6 8q98 8 88 112v25q-3 -1 -6.5 -1.5t-8 -2t-9 -2.5t-10 -2.5t-11.5 -3t-12 -2.5q-17 -5 -25 -7q-4 -2 -6 -2q-1 1 -1.5 2.5t-0.5 4.5q0 7 2.5 11
t7.5 5zM496 355q-4 6 4 12q3 2 6 1.5t6 -3.5q35 -45 78 -80q53 37 84 90q3 6 1 9.5t-10 3.5q-126 4 -192 -4q-6 0 -8 1.5t0 4.5q4 16 15 14h14q57 4 88 4v65q-55 0 -125 -4q-3 1 -4.5 2t-2 2.5t0.5 3.5q3 7 7 10t9 3q21 1 40.5 2t38 1.5t36.5 0.5v65q0 6 10 6q8 0 8 -8v-63
q26 0 60 -1t75 -3q12 0 8 -8q-1 -5 -3 -8.5t-5 -5t-6 -1.5q-55 6 -129 6v-65q12 -2 39 -2q12 -1 21.5 -1.5t17.5 -0.5q3 0 6 -0.5t5.5 -1t4.5 -1.5t4 -3l2 -2q4 -10 -6 -27q-14 -21 -28 -38.5t-28.5 -32t-29.5 -25.5q62 -39 143 -55q6 0 6 -4t-4 -8q-8 -8 -34 -4
q-78 20 -129 59q-28 -20 -63 -35t-78 -24q-10 -1 -17.5 1t-11.5 7q-6 8 4 10q88 16 149 53q-8 7 -16.5 14t-16 15t-15.5 16.5t-15 17.5t-14 19z" />
    <glyph glyph-name="uni6392" unicode="&#x6392;" 
d="M277 359q24 14 63 30q8 4 12 7v81q-36 0 -67 -4q-10 0 -8 6q2 7 5 11t7 4q12 0 37 2h26q-2 10 -2 34q-2 21 -2 33q0 3 1 4.5t3 2.5t4 1q12 4 10 -8q3 -33 3 -67h38q6 0 9 -2t2 -6q-1 -6 -5 -8.5t-10 -2.5h-34q2 -38 2 -73l12 6q16 6 24 12q5 1 8 0t3 -4q4 -14 -11 -18
q-6 -2 -18 -8q-13 -7 -18 -9v-57q8 -118 -74 -129q-6 -1 -11 -0.5t-9 3t-7 6.5q1 7 7 8q85 6 77 114q0 8 -0.5 16t-1 15t-0.5 14q-2 -1 -4.5 -2t-6 -2.5t-7.5 -3.5q-12 -6 -22 -11.5t-18 -9.5t-13 -8q-6 -4 -11 2q-2 13 7 21zM446 498q6 0 15.5 0.5t23 1t31.5 0.5v63
q0 12 10 10q10 0 10 -10v-361q-10 -15 -20 0v89h-36q-17 0 -31.5 -1t-27 -2t-22.5 -3q-6 -2 -6 0q-2 2 0 8q4 13 16 15q48 4 107 4v80q-31 0 -76 -7q-6 -2 -8 0q-1 1 -1 2v3q0 2 1 4q1 3 3 5.5t4.5 4.5t5 3t5.5 1q11 0 33 2h33v71q-43 0 -80 -6q-8 0 -6 10q4 15 16 13z
M620 563v-65q47 4 100 0q8 -2 6 -10q-4 -13 -18 -9q-45 4 -88 0v-69q19 0 36 -0.5t31 -0.5t27 -1q10 0 6 -8q-2 -13 -19 -11q-42 5 -81 0v-79q23 0 55 -1t73 -3q9 0 5 -8q-5 -8 -11 -10.5t-14 -0.5h-14q-59 4 -94 2v-85q0 -7 -8 -7q-5 0 -8 2t-3 5v359q0 12 11 10q8 2 8 -10
z" />
    <glyph glyph-name="uni63D0" unicode="&#x63d0;" 
d="M265 357q17 4 47 14q8 3 14.5 5t12 4t10.5 3.5t8 2.5v94q-63 0 -90 -9q-4 -2 -6 0q-2 4 0 9q2 14 15 14q14 0 38 2q15 0 25 0.5t16 1.5q0 16 -4 55q4 -26 0 6q0 4 2.5 6t7.5 2q8 -1 11 -10v-7q0 -5 0.5 -11t1.5 -12v-29h26q8 -1 15 -1.5t13 -0.5h11q8 0 8 -6
q-2 -17 -14 -12q-13 0 -31 2h-28q2 -46 2 -88q12 4 38 12q7 1 11.5 2t7.5 2q10 4 10 -6q-1 -6 -5 -9.5t-11 -4.5q-1 0 -3 -0.5t-5 -1.5l-4 -2h-4q-2 -1 -4.5 -1.5t-4.5 -1.5t-4 -1l-6 -2q-2 0 -5 -1t-5.5 -2t-5.5 -2l-2 -51q2 -112 -88 -120q-8 -2 -14.5 -0.5t-10.5 6.5
q-6 8 4 10q94 6 90 104q0 23 2 45q-38 -12 -90 -35q-8 -2 -10 9q0 6 2 10t6 6zM455 377q36 2 70.5 3.5t66.5 1.5q71 0 162 -5q12 0 8 -8q-2 -14 -19 -12q-61 6 -147 6v-47q14 1 36 1.5t52 0.5h33q12 0 8 -6q-1 -7 -5.5 -10.5t-12.5 -3.5q-58 6 -111 2v-43q35 -10 75.5 -20
t86.5 -19q6 0 8 -2t0 -6q-8 -10 -19 -8q-141 24 -261 75q-10 4 -14 6q-27 -34 -62 -63q-14 -12 -30 0q-4 2 -4 4q1 2 8 6q31 20 57.5 48t46.5 65q2 3 4.5 5t5.5 2t6 -1q8 -4 2 -14l-6 -11q-10 -16 -18 -24q1 0 1.5 -0.5t0.5 -1.5q45 -19 94 -35v100q-15 0 -29 -0.5t-27 -1
t-25.5 -2t-24.5 -3t-23 -3.5q-8 0 -10 2q-2 0 0 6q2 14 16 16zM490 418q-3 -1 -5.5 -0.5t-4 1.5t-3 3.5t-1.5 5.5q-6 62 0 97q-1 5 0 9.5t3 7t5 4t8 1.5q33 2 102 2t104 -2q9 0 13 -5t4 -15q6 -39 0 -96q0 -15 -17 -13q-29 2 -98 4q-70 -2 -110 -4zM492 492q100 4 206 0
q-2 10 -2 24q0 13 -12 13q-22 2 -88 4q-31 -1 -53 -2t-35 -2q-14 0 -14 -15q-2 -10 -2 -22zM686 437q8 -2 10 14q0 12 2 22q-136 5 -206 0q0 -5 0.5 -10.5t1.5 -11.5q1 -7 4.5 -10.5t9.5 -3.5q96 4 178 0z" />
    <glyph glyph-name="uni6574" unicode="&#x6574;" 
d="M399 288v-63h101v98q-47 0 -87 -1.5t-73 -4.5q-6 0 -8 2q0 2 2 6q2 6 6.5 9.5t12.5 4.5q216 4 328 0q6 -1 7 -2q2 0 0 -6q-3 -10 -21 -10q-36 1 -73.5 1.5t-75.5 0.5v-33q40 0 76.5 -0.5t68.5 -1.5q10 0 6 -8q-4 -13 -18 -10h-21q-73 4 -112 2v-47q155 0 235 -4
q10 1 8 -9q-2 -12 -20 -10q-140 4 -237 4q-168 0 -233 -8q-6 -2 -8 0q0 2 2 8q6 15 18 15h7h7h9q4 0 9 0.5t10 0.5t11 1h45v67q0 8 10 8q8 0 8 -10zM383 396q-35 -24 -77 -43q-5 -2 -9.5 -2t-8.5 1.5t-7 4.5q-2 4 -2 9q2 2 6 2q20 6 40 16t42 24q8 7 14 0q8 -6 2 -12z
M422 558v-19q39 0 64 -0.5t36 -1.5q16 2 14 -6q0 -12 -18 -12q-19 2 -96 2v-25q34 0 67 -2q7 1 12 -1t7.5 -6t3.5 -11q4 -19 -2 -39q0 -4 -2.5 -6.5t-7.5 -3.5t-13 0q-14 0 -38 2h-27v-78q0 -8 -8 -8q-10 0 -10 8v78h-33q-13 -1 -23.5 -1.5t-17.5 -0.5q-6 -1 -10.5 0t-7.5 4
t-4 8q-3 18 0 35q2 20 20 20q38 2 76 2v25q-66 0 -113 -6q-12 0 -10 6q6 16 18 14q13 2 51 2q18 1 31.5 1.5t22.5 0.5v19q0 10 8 10q5 0 7.5 -2.5t2.5 -7.5zM340 478q-18 2 -16 -21q-2 -16 20 -14q6 0 15 0.5t20 1.5h25v37q-19 0 -58 -4q27 4 -6 0zM475 480q-23 2 -53 2v-37
q15 0 29.5 -0.5t27.5 -1.5q19 0 16 21q5 16 -20 16zM434 398q-6 6 -2 10q4 7 12 5q29 -17 62 -31q2 -2 2 -4t-2 -4q-11 -13 -23 -4q-30 14 -49 28zM559 466q0 1 -0.5 1.5t-1.5 0.5q-6 -17 -17 -29q-2 -4 -6.5 -5t-11.5 1h1h-3q-8 2 -2 10q19 26 34 55.5t25 63.5q2 10 12 6
q11 -2 5 -14q-3 -10 -7 -19.5t-8 -19.5q38 2 147 2q11 0 6 -8q-6 -15 -18 -11q-8 0 -17 0.5t-18 1.5q-16 -47 -47 -83q57 -41 119 -55q6 -3 0 -11q-10 -16 -29 -10q-55 25 -102 61q-9 -9 -18 -17.5t-19.5 -15.5t-21.5 -12.5t-23 -9.5q-10 -5 -17 -4.5t-11 6.5q-4 4 -4 6
q2 3 6 4q51 11 96 56q-27 22 -49 49zM573 500l-3 -5q-1 -3 -2.5 -5.5t-2.5 -5.5l-2 -6q4 4 10 -2q4 -5 8 -9.5t9 -8.5l9 -10q5 -5 10 -9.5t11 -9.5q12 17 22 35.5t17 37.5h-23h-19q-9 0 -17 -0.5t-15 -0.5t-12 -1z" />
    <glyph glyph-name="uni670D" unicode="&#x670d;" 
d="M420 360q-23 2 -45 2t-43 -2q-8 -104 -32 -143q-11 -10 -25 -6q-8 4 0 12q35 39 41 172q2 45 -2 120v15q-2 26 26 28q35 4 74 2q31 -2 27 -30q-3 -70 0 -168q1 -50 2.5 -84.5t3.5 -54.5q0 -10 -11 -10q-5 0 -7.5 1.5t-2.5 4.5q-2 42 -6 141zM334 511v-41h86q0 23 2 45
q1 7 0 12t-4 8t-7 5t-9 2h-47q-23 0 -21 -31zM420 452q-41 4 -84 0q0 -18 -0.5 -34t-1.5 -29v-11q41 4 86 0v74zM661 456q-10 -14 -28 -8q-7 4 -3 8q33 25 52 67q4 11 2 15q-2 1 -7 2t-12 2q-43 4 -135 0q-8 0 -11.5 -4t-2.5 -13v-106q30 2 58.5 3t56 0t53.5 -3t14 -32
q-18 -54 -57 -101q15 -12 32 -22.5t35.5 -19t38.5 -15.5q3 -2 4.5 -3.5t1.5 -2.5q0 -2 -4 -4q-14 -10 -29 -4q-57 24 -92 57q-15 -16 -32.5 -30t-36.5 -25q-16 -6 -29 2q-6 4 2 10q49 23 82 57q-18 18 -32 41t-23 51q-2 8 4 13q8 4 12 -4q13 -45 51 -86q37 43 54 92
q2 4 -0.5 6t-8.5 2q-41 3 -79.5 2.5t-75.5 -4.5v-186q-10 -14 -20 0v312q-4 33 32 33q4 1 9 1t11 0.5t13 1t15 1t18 0.5q26 0 47.5 -0.5t38.5 -1.5q36 -4 24 -35q-9 -23 -20 -40.5t-23 -28.5z" />
    <glyph glyph-name="uni672F" unicode="&#x672f;" 
d="M340 463h156v96q0 8 10 8t10 -8v-96h112q44 0 84 -2q4 0 6 -2q0 -4 -2 -8q-6 -15 -22 -13q-109 9 -178 9v-7q129 -130 241 -192l4 -4q0 -1 -1 -2.5t-3 -3.5q-14 -16 -35 -4q-112 76 -206 182v-208q-4 -7 -9 -7.5t-11 5.5v204q-78 -98 -192 -168q-21 -10 -35 0q-6 4 -6 6
q0 4 6 7q46 23 86 51t75.5 62t65.5 72v7q-92 0 -174 -9q-6 -2 -8 0q0 1 0.5 4t1.5 7q5 7 11 10.5t13 3.5zM643 492q-3 2 -10 8q-31 22 -43 28q-3 2 -4.5 3.5t-1.5 4t2 5.5q8 10 14 4q5 -4 14 -10t23 -15q14 -10 20 -14q3 -2 4 -4t0.5 -4t-2.5 -4q-8 -9 -16 -2z" />
    <glyph glyph-name="uni679C" unicode="&#x679c;" 
d="M352 409q-3 55 0 127q2 20 20 20q120 12 278 0q9 0 13.5 -4t4.5 -12q6 -66 0 -131q0 -20 -28 -18q-19 0 -62 2q-20 0 -35 0.5t-24 1.5v-45h3h3h8q66 -2 119.5 -4t95.5 -4q3 -1 4.5 -2t2 -2.5t0 -3.5t-2.5 -5q-8 -16 -33 -12q-79 10 -200 14v-120q-8 -10 -18 0v120
q-28 0 -53 -1t-46.5 -2t-40 -2.5t-34 -3t-28 -3.5t-21.5 -4q-6 -2 -8 0t0 8q6 19 16 19q40 2 93.5 4t121.5 4v45q-6 0 -15 -0.5t-20 -1t-25 -0.5q-42 0 -61 -2q-24 -2 -28 18zM441 284q-15 -10 -33 -19.5t-38.5 -18.5t-42.5 -17q-20 -10 -27 6q-2 4 -0.5 7t7.5 4
q21 6 41.5 14t40 18t38.5 23q10 6 16 0q7 -8 -2 -17zM372 521q-1 -4 -1.5 -13t-0.5 -23q38 2 131 2v57q-31 0 -94 -4h-17q-16 2 -18 -19zM394 411h47q8 0 15 0.5t13.5 1t12.5 0.5h10h9v57q-14 0 -53 -2q-61 -2 -78 -4v-33q0 -13 6 -18t18 -2zM631 540h-14q-66 4 -98 4v-57
h67q45 -2 66 -2q0 8 -2 22v14q0 19 -19 19zM650 434q1 4 1.5 11.5t0.5 18.5q-29 2 -88 4q-10 1 -18.5 1.5t-15.5 0.5h-11v-57q9 0 23.5 -0.5t35.5 -1.5h55q19 -2 17 23zM578 282q-6 4 -7.5 8t1.5 7q8 8 19 2q61 -41 120 -55q8 -3 4 -11q-8 -18 -26 -8q-32 12 -59.5 26.5
t-51.5 30.5z" />
    <glyph glyph-name="uni699C" unicode="&#x699c;" 
d="M387 559v-60h57q10 -2 10 -10q-2 -12 -16 -8h-51v-27q32 -55 55 -79q3 -2 3.5 -4t-1 -4t-4.5 -4q-4 -3 -8 -3.5t-7 1.5t-6 6q-14 18 -32 51v-215q0 -4 -9 -6q-10 2 -10 6v227q-39 -76 -75 -108q-4 -4 -8.5 -6t-8.5 -1.5t-8 3.5q-6 6 2 10q55 59 98 147v6q-7 0 -26 -2
q-9 0 -17 -0.5t-14 -1t-10.5 -1t-7.5 -1.5q-13 -2 -11 6q3 14 15 14q6 0 15 0.5t22 1.5q22 0 34 2v60q0 10 8 10q11 2 11 -10zM511 375q102 6 205 0q8 -2 6 -8q0 -4 -2 -6.5t-6.5 -3.5t-10.5 -1q-26 5 -110 5q0 -5 -4 -15q-1 -5 -2 -9t-2 -7q45 -6 73 -16q33 -11 27 -33
q-2 -14 -5 -26t-7 -22.5t-9 -19.5q-8 -14 -30 -12h-2q-6 0 0 6q24 29 30 68q1 2 1 4.5t-0.5 5t-2.5 3.5l-3 4q-2 2 -5 3l-6 2q-18 4 -57 12q-4 1 -6.5 1.5t-4.5 0.5h-3q-37 -77 -109 -110q-7 -2 -13 -0.5t-11 6.5q-2 4 6 8q94 39 125 146q-21 0 -39 -2t-33 -5h-6q-2 2 0 7
q2 16 16 14zM485 520q27 2 56 3t58 1q-6 8 -11.5 15t-10.5 14q-9 8 0 14q10 8 14 0q20 -23 37 -43q10 0 24.5 -0.5t34.5 -1.5h15q8 0 14 -0.5t11 -0.5t9.5 -0.5t7.5 -0.5q8 0 6 -6q-4 -15 -18 -13q-19 3 -47 3q-10 -23 -23 -47q13 -3 35 -3q12 -1 21.5 -1.5t15.5 -0.5
q22 2 22 -18q1 -7 1.5 -14.5t0.5 -15t-0.5 -15.5t-1.5 -16q-2 -10 -10 -12q-8 2 -8 12q4 28 0 49q2 12 -18 14q-111 6 -217 0q-4 0 -6.5 -0.5t-5 -1.5t-4 -3t-2 -4t-0.5 -5t-0.5 -9.5t-1.5 -17.5v-22q-2 -12 -15 -12q-10 0 -8 12q2 9 2.5 18.5t1 20t0.5 22.5q-2 20 21 18
q33 2 65 2q-2 6 -4.5 11.5t-5.5 10.5l-4 10q-3 5 -5.5 9t-4.5 9q-8 0 -27 -3q-18 0 -25 -2q-10 0 -6 11q1 6 5.5 8.5t11.5 1.5zM571 457h69q12 24 22 47q-57 4 -114 0q4 -8 8 -15.5t7.5 -15.5t7.5 -16zM609 391q0 1 -5.5 6t-8.5 8q-8 7 -10 9q-12 10 -2 16q7 5 14 -2l20 -20
l7 -7q4 -8 -2 -12q-3 -2 -6.5 -1.5t-6.5 3.5z" />
    <glyph glyph-name="uni6B65" unicode="&#x6b65;" 
d="M530 564v-47q69 4 143 -2q5 -1 6 -2q2 0 0 -6q-2 -8 -6.5 -10.5t-10.5 -0.5q-81 4 -132 0v-47q106 0 216 -6q2 0 3.5 -0.5t2.5 -1.5q0 -2 -2 -6q-8 -18 -22 -14q-92 10 -217 8q-157 0 -233 -12q-4 0 -5.5 2.5t-0.5 7.5q4 14 19 16q16 0 47 2h42v74q0 10 11 10q4 0 6 -3.5
t2 -10.5v-68q21 0 59 2h51v117q0 10 10.5 10t10.5 -12zM660 362q-135 -121 -306 -168q-9 -3 -16.5 -1.5t-12.5 7.5q-1 1 -1.5 2t-0.5 2q2 3 6 4q196 53 317 168q6 6 14 0q6 -8 0 -14zM438 372q-39 -45 -72 -68q-14 -10 -26 0q-4 2 -4 6q2 3 6 5q49 28 79 67q4 6 13 4
q8 -6 4 -14zM523 415v-113q0 -10 -10 -12q-5 1 -7.5 4t-2.5 8v113q11 14 20 0z" />
    <glyph glyph-name="uni6CE8" unicode="&#x6ce8;" 
d="M354 382q-19 12 -38 22t-40 18q-10 7 -4 15q3 5 7 6t9 -2q17 -5 37 -15.5t43 -25.5q4 -3 4.5 -6.5t-2.5 -7.5q-8 -11 -16 -4zM313 204q-12 -4 -20 -2q-7 10 2 16q28 27 53.5 56.5t48.5 62.5q6 10 16 2l3 -3q1 -1 1.5 -2.5t0.5 -3.5t-1 -4l-2 -4q-4 -3 -4 -4
q-39 -55 -98 -114zM391 492q-35 26 -78 41q-10 6 -4 14q3 5 7.5 6t10.5 -2q31 -12 78 -41q8 -6 2 -14q-8 -10 -16 -4zM466 367q26 2 52.5 3t53.5 1v84q-60 0 -124 -2q-5 -1 -7 1t-1 7q2 13 14 10q143 7 253 -2q19 0 17 -8q0 -12 -21 -10q-27 4 -112 4v-84h47q22 0 39 -0.5
t30 -1.5h2q8 -2 4 -8q-2 -14 -18 -10q-52 2 -104 2v-100q94 -4 155 -12q8 0 8 -9q-8 -16 -18 -14q-68 14 -168 17l-34 -2q-17 -1 -33 -2t-31.5 -3t-30 -4.5t-28.5 -5.5q-10 -2 -8 8q4 17 18 15q64 12 151 12v100q-61 0 -114 -6q-8 0 -6 8q0 12 14 12zM579 492q-6 6 -11.5 12
t-11.5 12t-12.5 12t-13 11.5t-13.5 11.5q-8 6 0 14q6 5 19 -4q20 -15 35 -29t24 -26q8 -8 0 -14q-8 -8 -16 0z" />
    <glyph glyph-name="uni7528" unicode="&#x7528;" 
d="M564 229q-10 -14 -20 0v115q-73 0 -145 -4q-19 -90 -78 -115q-16 -8 -27 4q-5 7 -6 10q0 3 8 5q88 24 90 161q0 85 -2 110q-2 35 33 37q147 6 276 0q37 -2 37 -37q0 -125 2 -177v-26v-24l2 -24q0 -11 0.5 -22t1.5 -21q0 -8 -13 -8q-10 0 -10 6q-1 9 -1.5 24.5t-0.5 36.5
q-1 20 -1.5 35t-0.5 27q-75 4 -145 2v-115zM544 438q-21 0 -39 -0.5t-33.5 -0.5t-28 -0.5t-22 -1.5t-16.5 -1v-35q0 -10 -1 -20t-3 -19q46 2 143 2v76zM407 505v-51q67 2 137 2v80q-92 0 -117 -2q-21 -2 -20 -29zM564 456q106 0 145 -2v53q1 13 -4 20t-16 7q-21 2 -125 2
v-80zM709 434q-90 4 -145 4v-76q107 0 145 -2v74z" />
    <glyph glyph-name="uni7684" unicode="&#x7684;" 
d="M380 559q2 4 5.5 5t8.5 -1q8 -6 4 -14q-2 -2 -4 -8q-5 -8 -9 -15t-7.5 -12.5t-6.5 -10.5t-6 -9q23 0 44.5 -1t41.5 -3q22 0 25 -23q6 -110 0 -231q2 -22 -35 -18q-53 6 -111 0q-10 -1 -17 1.5t-10.5 7.5t-2.5 13q-8 123 -2 227q4 23 24 23q11 2 19 2q22 37 39 67z
M318 447v-6q-4 -33 -4 -70q9 1 18.5 1.5t18.5 1t18 0.5h18h18h18l18 -2q9 0 18 -1q0 15 -2 39v37q2 26 -22 26q-24 2 -47.5 2t-46.5 -2q-25 0 -23 -26zM457 267q0 16 2 45v41q-73 6 -143 0v-26q0 -12 0.5 -22.5t1 -20t0.5 -17.5q0 -33 29 -29q21 2 43 2t45 -2q24 -2 22 29z
M572 555q4 12 14 6q12 -2 4 -16q-4 -6 -10 -19q-8 -14 -13 -20q24 1 53.5 0.5t65.5 -2.5q41 -6 43 -39q0 -108 -10 -163q-11 -100 -129 -98q-12 0 -19 4t-8 12l-2 10q2 4 8 2q117 -20 129 72q10 47 10 151q0 12 -7 19t-21 9h-19q-28 2 -54.5 2t-51.5 -2l-10 -14
q-5 -7 -10.5 -13t-11.5 -11q-9 -15 -27 -7q-6 5 -6 7l6 4q45 41 76 106zM639 314q-21 21 -46 42.5t-52 43.5q-3 1 -4.5 2.5t-1.5 3.5t4 6q6 8 18 2q35 -26 59.5 -46t38.5 -36q6 -8 0 -16q-8 -8 -16 -2z" />
    <glyph glyph-name="uni79D1" unicode="&#x79d1;" 
d="M452 548q10 5 12 -10q3 -7 -20 -9l-7 -1h-3h-4h-3q-2 0 -4 -0.5t-4.5 -0.5t-5 -0.5t-4.5 -0.5h-21v-78q55 0 80 -2q12 0 8 -6q-4 -14 -18 -12q-7 0 -13.5 0.5t-13.5 0.5t-14 0.5t-14 0.5h-15v-18q7 -9 14 -16l14 -14q7 -7 14 -13t14 -11l14 -10q8 -4 0 -12q-4 -3 -8 -3.5
t-7.5 1t-7.5 4.5q-12 8 -24 19.5t-23 25.5v-180q0 -2 -1 -3.5t-2.5 -2.5t-4.5 -2q-3 1 -5.5 2t-3.5 2.5t-1 3.5v198q-21 -34 -41 -63t-41 -51q-8 -10 -24 -2q-2 1 -2.5 3t0.5 4t4 5q51 45 98 133q-11 0 -21 -0.5t-20.5 -1t-21 -2t-21.5 -2.5q-8 0 -6 6q2 8 6 12t10 4
q11 1 31 1.5t49 0.5v76q-32 0 -66 -2q-16 0 -18 12q-1 4 1 6t7 2q37 -2 66 0q22 0 92 6zM460 309q71 11 194 15v239q0 4 3 6.5t9 3.5q4 -1 6 -3.5t2 -6.5v-237q62 0 80 2q6 0 8 -2.5t0 -7.5t-5.5 -8t-9 -4t-12.5 -1q-24 4 -61 0v-102q0 -8 -10 -8t-10 8v102
q-56 -2 -107 -6.5t-95 -11.5q-5 -2 -7 0t0 6q2 16 15 16zM584 358q-14 12 -34.5 24.5t-46.5 27.5q-13 6 -7 16q9 8 17 2q21 -10 42 -23t42 -28q4 -3 4.5 -6.5t-2.5 -7.5q-7 -11 -15 -5zM609 452q-11 10 -21.5 18t-20.5 15t-19 13.5t-17 11.5q-12 6 -6 14q8 8 16 2
q47 -29 82 -57q6 -6 0 -14.5t-14 -2.5z" />
    <glyph glyph-name="uni79FB" unicode="&#x79fb;" 
d="M301 533q86 7 149 21q6 3 10.5 2t6.5 -6q5 -8 4 -8q0 -1 -1 -2t-3.5 -1.5t-5.5 -1.5q-31 -6 -62 -10v-75h23q32 -2 57 -2q12 0 8 -7q-2 -14 -18 -14q-6 0 -17 2q-27 2 -53 2v-22q29 -37 70 -66q10 -8 2 -12q-15 -9 -25 2q-11 9 -22.5 22t-24.5 29v-186q0 -6 -8 -8
q-5 1 -7.5 3t-2.5 5v205q-35 -68 -84 -121q-12 -10 -26 -2q-3 3 -2.5 6t4.5 6q28 27 53.5 61.5t48.5 77.5q-9 0 -23.5 -1t-33.5 -3t-29 -4q-8 0 -6 6q2 8 6 12.5t10 4.5h8h8q4 0 8.5 0.5t9 0.5t9.5 1q29 2 39 2v71q-9 0 -17 -1t-15.5 -1.5t-14 -1.5t-12.5 -2q-19 -4 -25 6
q-2 4 -1.5 6.5t3.5 3.5h2zM544 305q-8 6 -2 12t17 0q2 -2 5.5 -5t7.5 -6t9 -7t10 -9q17 -12 25 -18q6 -4 6.5 -7.5t-4.5 -6.5h-2q30 14 56.5 32t47.5 39q6 6 9 10.5t3 7.5q0 2 -0.5 3.5t-2 2.5t-4 2.5t-5.5 2.5q-22 2 -52 1.5t-66 -3.5q-4 -3 -8 -5.5t-8.5 -4.5t-9.5 -4
l-8 -6q-5 -2 -9.5 -4t-9.5 -4.5t-10 -4.5l-10 -4q-5 -2 -10.5 -4t-10.5 -4q-19 -8 -25 0q-6 4 -6 8q0 2 6 4q51 15 88 34.5t59 43.5q8 10 16 2q13 -7 2 -15q-2 -2 -8 -6l-2 -2q-2 -2 -3.5 -3t-2.5 -1.5t-2 -1.5q59 4 108 0q31 -12 9 -45q-92 -106 -276 -133q-21 -4 -27 6
q-2 9 6 9q88 14 158 43q-6 0 -13 6q-30 28 -51 45zM555 466q-9 6 -3 14q3 2 5.5 2t5 -1t6.5 -3q5 -5 12.5 -11t17.5 -13q6 -4 10 -7.5t7 -5.5l4 -3l1.5 -3t0.5 -2q57 25 94 66q14 16 -2 22h-2q-32 4 -98 -2q-37 -24 -90 -47h-2q-16 -4 -23 2q-3 2 -4.5 4t-1.5 4t6 4
q92 29 147 84q11 10 17 2q6 -4 6.5 -7.5t-4.5 -6.5l-8 -6q-4 -4 -19 -15h92q16 -4 19 -13.5t-7 -24.5q-77 -90 -257 -133q-20 -6 -24 8q-7 8 4 10q21 3 43.5 8t46 13t49.5 18q0 2 -2 2q-3 2 -5 2q-9 9 -19.5 19t-22.5 20z" />
    <glyph glyph-name="uni7AD9" unicode="&#x7ad9;" 
d="M429 415q6 8 13 4q10 -2 6 -15q-9 -28 -17.5 -53t-16.5 -46t-15 -38q31 5 59 7q8 0 8 -9q-4 -16 -16 -14q-88 -6 -172 -26q-8 -3 -8 0q-1 3 0 8q2 7 6.5 11t12.5 5q26 6 73 12q8 2 12 2l2 2v2q31 63 53 147v1zM289 464q27 2 91 2q21 0 38.5 -0.5t31 -1t22.5 -0.5
q6 -2 6 -9q-2 -12 -18 -10q-112 4 -180 -2q-4 -2 -6 0q-1 1 -1 2.5t1 3.5q0 12 15 15zM333 306q-14 61 -24 94q-4 10 6 12q4 2 7.5 0t6.5 -8q2 -4 3.5 -9.5t3 -12t4 -14.5t5 -17t5.5 -20q1 -7 2 -12.5t2 -8.5q2 -12 -6 -14q-10 -2 -15 10zM387 496q-7 14 -19 37q-6 10 -8 16
q-6 8 0 13l2 2q9 3 14 -2q2 -3 4 -7q3 -5 6 -9.5t5.5 -9t4.5 -8.5l4 -8q2 -4 4 -7.5t3 -6.5q2 -10 -6 -14t-14 4zM478 208q-2 22 -2 66v8q0 4 0.5 8t0.5 8v8v6v6q0 3 0.5 5.5t0.5 4.5v5v4q2 22 21 20q15 1 32 1.5t35 0.5v201q0 5 2.5 7.5t8.5 2.5q10 2 10 -10v-90h161
q6 0 6 -2q2 -2 -2 -9q-4 -14 -22 -10q-84 4 -143 0v-90h29h29q15 0 30 -0.5t30 -1.5q9 1 14.5 -3t6.5 -13q4 -88 0 -135q0 -8 -25 -8h-204q-19 0 -19 10zM497 321v-45v-45q2 -17 20 -17q23 1 45.5 1.5t44.5 0.5t43.5 -0.5t42.5 -1.5q6 -1 9.5 3t4.5 14q4 43 0 90
q0 22 -20 18q-9 1 -18.5 1.5t-19 0.5t-19 0.5t-18.5 0.5h-20q-9 0 -18.5 -0.5t-19.5 -0.5t-19.5 -0.5t-19.5 -1.5q-16 2 -18 -18z" />
    <glyph glyph-name="uni7EA7" unicode="&#x7ea7;" 
d="M279 256q27 10 100 35q27 8 39 12q8 2 8 -4q0 -7 -3 -11t-9 -5q-84 -25 -135 -50q-6 -2 -8 5q-2 16 8 18zM435 470q-72 -57 -129 -110q-6 -8 -4 -12q4 -4 16 -2q27 5 52.5 11.5t49.5 14.5q8 2 13 -6q2 -10 -9 -12q-19 -6 -44.5 -12.5t-57.5 -14.5q-7 -1 -13.5 -1.5
t-11.5 0.5t-9 3t-7 5q-4 8 -1 17.5t14 20.5q4 5 14 13q26 25 33 32q-82 27 -49 66q34 37 87 79q9 6 17 0q2 -2 2.5 -4t-1 -4t-3.5 -4q-62 -51 -86 -80q-3 -4 -2.5 -8t4 -8t10 -7.5t16.5 -7.5t23 -7q21 21 55 51q4 2 6 4q8 6 15 0q6 -8 0 -17zM500 219q24 10 49.5 24.5
t52.5 32.5q-25 25 -48.5 55.5t-45.5 67.5q-33 -123 -96 -180q-6 -6 -12.5 -6.5t-13.5 4.5q-9 4 2 12q102 84 122 288q-35 0 -59 -6q-8 0 -6 11q3 7 7.5 10.5t10.5 3.5q17 0 35 0.5t38.5 1t43.5 0.5q61 2 94 0q6 0 10.5 -1.5t7.5 -4t4 -6.5q2 -6 -0.5 -12.5t-9.5 -14.5
q-19 -20 -35.5 -38t-32.5 -33q-2 -3 -3 -5.5t-1 -3.5t2 -1.5t6 -0.5q21 2 68 2q12 -1 20 -4.5t13 -9.5q6 -14 -9 -35q-12 -16 -25 -32t-27 -31.5t-29 -30.5q49 -36 114 -55q3 -1 4.5 -2t1.5 -2q0 -2 -1 -4t-3 -4q-14 -10 -33 -4q-18 7 -35 16.5t-33.5 20t-31.5 22.5
q-40 -35 -90 -59q-18 -4 -30 4q-3 3 -2 5.5t6 4.5zM612 399q-16 -2 -20 10q-2 6 0 12.5t8 12.5q47 45 67 73q7 8 5 10q0 2 -9 2q-69 5 -134 0q-5 -49 -15 -91q49 -88 104 -137q26 23 46 46t34 46q6 10 4 14q-1 2 -4 3t-8 1q-27 4 -78 -2z" />
    <glyph glyph-name="uni8005" unicode="&#x8005;" 
d="M452 196q-15 -2 -22 0t-7 8q-6 51 -2 139q-15 -9 -30.5 -17.5t-31 -16t-31.5 -15.5t-32 -15q-20 -8 -32 2q-3 3 -4 5t0 4q0 4 6 6q119 43 253 126h-18q-129 -4 -221 -14q-8 0 -10 2t0 10q2 6 6 9.5t10 3.5q108 6 204 6v61q-27 0 -54 -1t-54 -3q-6 0 -6 2q-2 0 0 6
q2 12 14 12q52 2 100 2v47q0 3 1.5 5t3.5 2.5t6 0.5q8 0 8 -10v-45h90q4 0 6 -1t2.5 -3.5t-0.5 -5.5q-3 -5 -8 -7.5t-13 -2.5q-19 1 -38.5 1.5t-38.5 0.5v-61h37q67 44 108 81q3 3 5.5 3t4.5 -3q10 -12 -2 -20q-36 -31 -82 -61q43 0 87.5 -1.5t90.5 -4.5q5 -1 6 -3
q1 -3 -2 -8q-2 -4 -5.5 -7t-9 -3.5t-11.5 0.5q-45 6 -182 10q-39 -26 -78 -49q26 1 59.5 0.5t75.5 -2.5q20 -4 22 -22q7 -70 0 -141q2 -17 -30 -12q-76 4 -151 0zM460 353q-21 4 -19 -19q0 -4 -0.5 -9.5t-1 -12t-0.5 -14.5q92 4 178 0q0 20 -2 32q0 25 -18 23q-64 6 -137 0z
M615 234q2 17 2 45q-59 4 -178 0v-7q0 -4 0.5 -7t0.5 -7v-6v-5v-5q0 -2 0.5 -4t0.5 -4v-4q-2 -22 25 -20q63 4 131 0q10 -2 14.5 4t3.5 20z" />
    <glyph glyph-name="uni82F9" unicode="&#x82f9;" 
d="M347 461q147 6 347 2q10 0 6 -11q-2 -14 -18 -10q-25 2 -80 2q-28 1 -48 1.5t-33 0.5v-108q172 -4 230 -10q6 0 9 -2q0 -4 -5 -8q-10 -13 -34 -11q-104 11 -200 13v-119q0 -2 -1.5 -3.5t-3.5 -2.5t-6 -2q-3 1 -5.5 2t-3.5 2.5t-1 3.5v119q-153 0 -223 -13q-16 -2 -12 9
q2 4 4.5 7.5t6 5.5t8.5 3q100 6 216 6v108h-6h-8h-10q-4 0 -9.5 -0.5t-11.5 -0.5t-12 -1q-78 0 -108 -4q-13 0 -8 10q0 13 20 11zM584 561v-29h14q7 0 16.5 -0.5t20 -0.5t22.5 -1h66q10 0 6 -10q-2 -15 -18 -10q-33 2 -65 3t-62 1v-27q0 -4 -3 -6t-9 -2q-4 1 -6.5 3.5
t-2.5 6.5v25q-4 0 -10 0.5t-13 0.5h-16q-8 0 -17 -0.5t-19 -0.5h-37v-27q0 -3 -1.5 -4.5t-4 -2.5t-6.5 -1q-3 1 -4.5 2t-2.5 3t-1 5v25q-43 0 -111 -4q-10 -2 -14 -2q-6 -2 -8 0t0 8q2 16 20 14h49q21 1 37 1.5t27 0.5v31q0 12 8 10q12 0 12 -12v-29h112v31q0 4 1.5 6.5
t3.5 4t6 1.5q12 0 10 -14zM404 426l2 -2q29 -37 45 -68q6 -12 -4 -14q-8 -6 -14 4q-2 2 -4 6q-25 47 -41 64q-6 6 2 12q6 6 14 -2zM623 428q4 8 12 2q12 -6 4 -14q-24 -39 -55 -74q-6 -6 -16 2q-9 4 0 12q13 13 26.5 30.5t28.5 41.5z" />
    <glyph glyph-name="uni8425" unicode="&#x8425;" 
d="M604 563v-30q19 -2 36 -3l34 -2q17 -1 32.5 -2t30.5 -2q6 0 8 -2q0 -4 -4 -8q-4 -10 -15 -12.5t-28 2.5h-6q-43 8 -88 8v-31q-12 -10 -18 3v30q-17 0 -35 0.5t-39 1.5h-41q-30 -2 -47 -2v-35q-12 -10 -18 2v31q-92 -8 -119 -14q-10 -2 -8 10q0 5 2 9t5.5 5.5t9.5 1.5
q11 2 23 3t23 1l22 2h22h20v35q0 8 8 8q5 0 7.5 -2t2.5 -6v-32q15 0 45 2h43q7 0 17.5 -0.5t23.5 -1.5h33v32q0 8 8 8q12 2 10 -10zM326 465q180 10 358 0q28 -2 30 -24q4 -35 0 -70q-14 -12 -20 2q4 35 0 57q-2 15 -27 17q-151 10 -328 0q-9 -1 -13.5 -6t-5.5 -15t-1 -20
v-20q0 -9 1 -19q0 -5 -2 -7.5t-6 -2.5q-10 0 -10 10q-2 45 0 72q1 12 7 18.5t17 7.5zM357 202q-2 32 0 71q-2 21 16 21q119 10 272 0q18 -3 18 -19q6 -45 0 -73q0 -11 -32 -7q-125 5 -248 0q-28 -4 -26 7zM373 257v-25q0 -26 23 -22q75 4 233 0q18 -4 18 22v25q-2 18 -20 18
q-107 10 -233 0q-19 0 -21 -18zM390 338q-4 37 2 60q2 20 18 18q84 10 194 0q16 2 18 -16q7 -29 0 -62q0 -10 -26 -10q-92 6 -184 0q-20 0 -22 10zM408 383v-8q-2 -10 0 -12q-1 -9 4.5 -13t17.5 -3q8 0 15.5 0.5t14.5 0.5t14 0.5t14 0.5h12h88q18 -6 18 14v20q0 19 -24 19
q-74 6 -154 -2q-16 0 -20 -17z" />
    <glyph glyph-name="uni9500" unicode="&#x9500;" 
d="M349 556q4 13 14 8.5t6 -16.5q-6 -20 -16 -39q49 4 106 0q12 0 8 -6q-2 -12 -18 -12q-58 6 -104 0q-9 -18 -18.5 -34t-20.5 -29q-2 -4 -5.5 -5.5t-8.5 -1t-11 2.5q-4 2 -4 4q0 4 6 8q23 23 39 53.5t27 66.5zM302 370q35 3 71 3v51h-24q-6 -1 -10.5 -1.5t-8.5 -0.5h-6
q-3 -1 -4.5 -0.5t-2.5 2t-1 4.5q1 5 5 8t11 4q69 0 111 -2q18 0 16 -8q-1 -5 -6 -7t-15 -1q-8 0 -16 0.5t-15.5 1t-15.5 0.5v-51h58q18 -3 16 -9q0 -14 -20 -10h-25q-19 2 -29 2v-98q0 -12 7 -14q2 -1 5.5 0.5t8.5 5.5q33 31 45 53q6 6 12 0t0 -14q-24 -35 -53 -57
q-37 -19 -43 20v104q-34 0 -80 -4q-10 -2 -8 8q2 12 17 10zM630 565v-105q44 2 88 -4q15 0 22 -7.5t7 -22.5q-8 -129 -2 -219q0 -10 -8 -12q-5 -1 -8 0.5t-3 5.5q-1 13 -2 26.5t-1.5 27t-0.5 28.5q-94 6 -202 0q-12 -51 -59 -86q-18 -8 -33 2q-2 2 -3 4.5t-1.5 4t0.5 3
t2 2.5q0 -1 0.5 -1t1.5 1q84 27 82 135q0 20 -1 40t-3 40q-1 7 0.5 12.5t5.5 9t9.5 5t12.5 1.5q43 4 13 0q30 4 63 4v105q0 2 1 4t3.5 3.5t5.5 2.5q5 -1 7.5 -3.5t2.5 -6.5zM541 477q-2 2 -4 4.5t-4.5 6t-5.5 7.5t-7 9t-8.5 10.5t-9.5 11.5q-8 10 0 14q10 8 14 0l8 -8
q4 -4 7.5 -8.5t7.5 -8.5t7 -8.5t6.5 -9t6.5 -8.5q4 -8 -4 -16q-4 -2 -7.5 -1t-6.5 5zM722 301q0 31 2 59q-46 3 -95 3t-101 -3v-12q0 -24 -4 -45q129 4 198 -2zM528 409v-30q48 3 97 3t99 -3q0 6 2 16v16q3 29 -20 29q-63 6 -157 -2q-23 4 -21 -29zM698 479q-8 -10 -16 -4
q-5 3 -5 6.5t5 7.5q14 16 23.5 29.5t14.5 23.5q3 5 7.5 6t9.5 -2q12 -6 0 -20q-21 -29 -39 -47z" />
  </font>
</defs>
</svg>
